<svg width="724" height="434" viewBox="0 0 724 434" fill="none" xmlns="http://www.w3.org/2000/svg"><g opacity="0.046336"><path fill-rule="evenodd" clip-rule="evenodd" d="M184.499 69.8066C192.654 51.0776 208.845 51.0546 222.374 47.6016C231.378 52.6936 237.114 60.6166 245.587 59.5856C248.026 59.2956 250.295 57.5106 252.368 56.3946C254.589 55.2026 257.191 54.6676 258.967 52.6076C255.493 47.2976 253.385 42.0016 246.529 39.1736C235.231 34.4806 227.107 44.0906 217.801 45.0416C220.267 41.6076 223.269 37.3086 224.013 33.0666C224.399 30.8496 223.417 28.3066 223.562 25.8256C223.917 20.1996 225.372 15.8896 224.198 12.2036C220.459 0.481567 206.2 0.705567 196.452 1.15057C195.823 12.4466 204.545 26.6456 220.008 26.8126C224.025 36.0496 211.891 49.2656 203.789 48.6636C202.998 43.5106 206.186 40.6366 206.921 35.9486C208.901 23.2086 189.794 11.0116 180.335 21.0656C184.617 28.9516 186.771 39.9926 200.351 43.2456C201.023 52.2156 190.694 51.8956 186.442 57.4106C184.5 54.6396 183.055 48.9906 180.187 45.4176C181.691 36.1646 170.759 21.7106 158.598 23.3676C152.156 24.2396 148.523 30.3596 143.309 33.7556C153.39 41.7806 167.257 56.6346 177.93 47.6486C180.584 53.4056 186.004 58.3796 179.772 66.6436C159.063 55.5946 142.616 59.1746 126.8 65.9286C115.223 70.8886 103.485 82.7466 96.9364 96.1136C83.0964 124.397 94.1294 158.786 122.098 175.038C134.128 182.032 152.165 183.379 162.329 181.589C172.983 179.71 186.177 173.947 194.693 164.788C204.19 154.575 211.929 139.364 213.888 125.136C216.71 104.559 205.761 84.1676 184.499 69.8066Z" fill="#110808"/><path fill-rule="evenodd" clip-rule="evenodd" d="M221.688 20.2978C222.34 13.9068 220.395 7.71876 213.458 4.71476C208.937 2.75476 204.238 4.86076 200.23 4.29976C199.007 12.7268 208.2 23.7228 218.645 23.0988C217.18 16.7908 211.934 11.5508 204.187 7.03176C211.891 5.98676 218.097 15.9848 221.688 20.2978Z" fill="white"/><path fill-rule="evenodd" clip-rule="evenodd" d="M231.314 44.1152C236.526 45.5322 244.279 46.6632 248.501 51.7442C242.981 50.0002 234.687 47.0132 228.656 47.1052C235.794 55.9942 248.087 58.4492 254.543 51.6322C251.818 43.0922 237.065 37.4472 231.314 44.1152Z" fill="white"/><path fill-rule="evenodd" clip-rule="evenodd" d="M183.809 22.0263C186.305 24.2263 190.154 23.2233 193.599 25.0223C198.564 27.6203 201.813 32.3123 203.21 36.3813C207.865 28.9443 191.538 15.0163 183.809 22.0263Z" fill="white"/><path fill-rule="evenodd" clip-rule="evenodd" d="M186.039 24.2851C186.931 30.7371 191.5 38.3431 200.332 39.7661C200.322 33.0311 193.6 26.0841 186.039 24.2851Z" fill="white"/><path fill-rule="evenodd" clip-rule="evenodd" d="M150.43 31.7626C156.628 31.7886 168.645 33.2096 175.946 40.5586C176.018 29.9346 156.454 22.0636 150.43 31.7626Z" fill="white"/><path fill-rule="evenodd" clip-rule="evenodd" d="M149.36 33.6738C154.298 40.5278 168.638 50.8848 176.084 45.6308C171.14 36.2888 157.993 34.1578 149.36 33.6738Z" fill="white"/><path fill-rule="evenodd" clip-rule="evenodd" d="M176.758 72.954C163.375 65.929 154.839 76.137 144.978 81.591C149.569 87.216 154.272 92.825 163.154 97.254C167.433 89.011 173.218 80.11 176.758 72.954Z" fill="white"/><path fill-rule="evenodd" clip-rule="evenodd" d="M180.881 76.2714C176.105 84.3394 173 91.9194 168.07 100.032C176.38 103.777 183.847 104.541 191.566 106.196C194.105 94.4944 193.416 83.7024 180.881 76.2714Z" fill="white"/><path fill-rule="evenodd" clip-rule="evenodd" d="M143.038 77.0107C148.275 72.9277 153.817 69.8697 159.636 67.8467C154.239 64.9547 147.104 65.7247 141.591 66.2357C141.629 69.9577 140.684 73.9577 143.038 77.0107Z" fill="white"/><path fill-rule="evenodd" clip-rule="evenodd" d="M198.598 106.12C200.69 106.359 202.574 105.861 204.136 104.224C202.76 100.995 201.334 97.7641 200.112 94.4911C198.54 97.3911 199.738 102.28 198.598 106.12Z" fill="white"/><path fill-rule="evenodd" clip-rule="evenodd" d="M136.481 67.3613C125.347 71.7153 114.384 76.7343 106.295 91.8783C111.991 95.0663 116.395 98.6193 122.214 101.773C127.448 94.2723 132.622 86.5543 138.377 80.8993C137.902 76.3363 135.265 72.4013 136.481 67.3613Z" fill="white"/><path fill-rule="evenodd" clip-rule="evenodd" d="M197.72 112.126C194.825 120.626 192.494 128.95 186.557 138.309C190.985 140.71 197.018 144.269 200.235 145.966C207.523 132.392 207.771 120.806 206.02 109.783C203.184 110.318 200.53 111.498 197.72 112.126Z" fill="white"/><path fill-rule="evenodd" clip-rule="evenodd" d="M165.313 104.959C162.268 110.399 159.212 115.858 156.167 121.297C163.794 127.094 173.429 130.365 182.005 135.761C186.882 127.464 189.003 119.929 191.094 112.403C182.79 110.963 174.503 109.534 165.313 104.959Z" fill="white"/><path fill-rule="evenodd" clip-rule="evenodd" d="M160.596 101.826C153.013 96.8311 145.87 91.6941 141.669 85.7441C135.95 88.8851 131.977 98.2041 127.314 105.146C135.362 109.496 143.322 115.53 151.634 118.76C154.753 113.051 157.019 107.615 160.596 101.826Z" fill="white"/><path fill-rule="evenodd" clip-rule="evenodd" d="M103.537 96.8046C97.2025 109.877 96.4105 121.418 98.1815 132.219C102.848 131.7 107.388 130.849 112.094 130.534C113.287 122.946 116.265 114.854 119.445 106.72C113.442 103.618 109.468 99.9446 103.537 96.8046Z" fill="white"/><path fill-rule="evenodd" clip-rule="evenodd" d="M183.634 142.652C178.12 151.808 171.164 155.913 164.811 162.037C166.842 164.881 169.283 167.594 170.453 170.682C180.847 168.995 189.799 162.203 197.496 150.904C194.021 147.819 188.073 145.448 183.634 142.652Z" fill="white"/><path fill-rule="evenodd" clip-rule="evenodd" d="M153.409 126.224C150.344 131.471 148.64 136.317 145.278 141.629C152.303 146.467 156.549 152.107 161.299 157.585C167.474 152.657 173.677 147.82 179.062 140.093C170.573 135.653 161.64 129.694 153.409 126.224Z" fill="white"/><path fill-rule="evenodd" clip-rule="evenodd" d="M148.857 123.676C140.916 118.997 131.755 114.647 124.746 109.688C120.507 116.011 119.213 124.243 117.916 130.816C125.378 132.327 133.109 134.791 141.144 138.331C143.268 133.568 145.995 128.65 148.857 123.676Z" fill="white"/><path fill-rule="evenodd" clip-rule="evenodd" d="M129.545 169.733C134.429 170.396 139.445 168.416 143.722 166.694C148.102 164.926 153.061 163.329 156.893 160.089C152.825 155.379 148.861 150.624 142.519 146.555C138.534 154.783 132.509 161.711 129.545 169.733Z" fill="white"/><path fill-rule="evenodd" clip-rule="evenodd" d="M117.817 137.232C116.944 148.131 113.704 159.7 124.409 167.348C128.936 160.695 134.307 151.147 137.592 143.797C130.643 140.399 123.984 137.914 117.817 137.232Z" fill="white"/><path fill-rule="evenodd" clip-rule="evenodd" d="M100.175 139.34C102.905 146.021 105.738 152.705 112.548 158.251C111.742 151.227 110.478 144.331 110.994 136.933C107.078 136.578 103.323 136.859 100.175 139.34Z" fill="white"/><path fill-rule="evenodd" clip-rule="evenodd" d="M142.974 174.273C150.776 175.871 157.939 175.144 164.501 172.346C163.475 170.064 161.782 168.002 160.714 165.749C154.734 167.551 147.862 172.247 142.974 174.273Z" fill="white"/><path fill-rule="evenodd" clip-rule="evenodd" d="M82.809 178.393C81.577 177.493 80.663 180.372 79.431 180.205C78.974 180.151 76.22 176.551 75.541 175.789C69.866 169.437 64.675 164.689 53.213 164.632C50.68 163.179 50.499 161.408 48.022 160.216C41.308 157.02 27.576 162.68 25.694 155.289C29.707 150.486 27.867 139.813 35.813 138.926C38.304 141.169 37.723 143.757 40.228 145.418C43.592 147.648 47.607 145.281 52.174 145.931C53.573 146.124 55.095 147.773 56.59 146.969C55.262 141.266 53.988 133.861 48.285 132.171C39.093 129.458 35.439 137.39 29.071 139.702C29.362 137.666 27.05 136.296 26.732 134.248C26.4 132.02 27.382 129.721 28.282 127.755C37.391 129.541 42.443 125.637 46.195 121.263C43.938 120.53 42.443 117.885 39.965 116.847C34.885 114.73 27.756 117.885 26.205 122.565C25.181 125.665 25.956 128.905 24.392 132.171C22.136 130.192 17.9 127.811 16.862 124.128C15.629 119.727 17.595 115.45 20.751 113.484C24.323 114.549 27.341 116.086 31.66 115.297C33.75 114.91 35.84 112.832 38.152 111.919C39.329 111.462 40.671 111.906 41.267 110.619C39.882 108.957 38.069 107.918 36.338 106.465C34.774 105.164 32.989 103.268 30.884 102.825C26.317 101.883 22.329 103.614 20.24 105.676C18.343 107.545 18.703 109.857 17.9 112.431C17.041 115.172 14.093 117.664 14.786 121.263C7.67 119.935 -2.186 119.284 -5.204 124.904C-7.197 128.614 -7.183 136.477 -4.941 140.478C-3.778 140.255 -3.252 138.775 -2.338 138.137C0.582003 136.076 4.68 135.826 6.743 132.947C8.749 130.151 7.379 125.873 10.121 122.565C14.84 121.678 14.591 125.029 16.086 127.493C18.662 131.729 26.317 134.94 26.732 140.741C21.125 138.996 14.107 138.04 10.37 141.779C7.545 144.603 8.127 148.838 7.518 153.973C9.372 153.448 11.546 152.244 13.498 151.123C17.374 148.894 19.173 145.972 20.765 141.779C23.188 141.875 25.541 142.028 26.995 143.08C27.133 148.243 24.573 153.158 21.291 155.8C18.565 157.989 15.865 158.404 12.723 160.216C10.536 161.477 6.604 165.118 4.417 165.145C2.355 165.172 -1.189 162.722 -3.377 161.255C-7.197 158.666 -9.01 155.468 -14.796 156.839C-18.52 154.513 -21.026 150.943 -27.781 151.649C-31.768 155.717 -29.677 161.242 -27.006 164.107C-22.562 168.869 -14.783 173.547 -12.458 179.43C-4.304 182.56 3.93301 184.774 11.685 187.999C15.09 189.425 17.734 192.07 21.804 192.415C27.452 192.9 33.141 192.153 39.716 192.153C44.007 192.153 49.087 191.473 52.701 192.153C55.94 192.761 57.711 195.474 60.231 197.343C58.833 199.157 56.923 200.444 55.552 202.272C58.598 206.328 62.764 209.247 66.197 212.916C69.658 216.613 73.326 220.169 77.106 223.562C86.602 216.613 96.845 210.411 105.663 202.797C98.866 194.893 90.865 185.91 82.809 178.393Z" fill="#110808"/><path fill-rule="evenodd" clip-rule="evenodd" d="M31.4106 104.915C26.1916 103.157 20.8896 106.41 20.7646 110.882C23.3816 109.04 29.3196 106.798 33.2236 108.805C29.3616 109.179 25.6516 109.719 23.3536 111.657C27.9636 114.218 34.7196 113.152 37.6406 109.843C35.7156 108.791 34.0136 105.787 31.4106 104.915Z" fill="white"/><path fill-rule="evenodd" clip-rule="evenodd" d="M28.0326 124.391C31.6036 122.176 35.5916 120.364 41.2806 120.239C37.0306 116.432 28.5726 119.035 28.0326 124.391Z" fill="white"/><path fill-rule="evenodd" clip-rule="evenodd" d="M-2.60121 132.961C-3.86121 128.02 1.05279 124.877 3.89079 122.316C-3.48721 122.15 -6.10321 129.417 -4.16521 136.852C-1.31421 134.373 3.04579 134.248 5.17779 131.134C6.72879 128.877 6.31379 125.929 7.51779 122.828C2.13279 124.198 -0.608207 128.199 -2.60121 132.961Z" fill="white"/><path fill-rule="evenodd" clip-rule="evenodd" d="M30.1098 125.693C34.9408 126.289 40.0208 126.621 41.2808 122.579C36.1168 122.176 32.6568 123.479 30.1098 125.693Z" fill="white"/><path fill-rule="evenodd" clip-rule="evenodd" d="M38.6782 136.338C45.2672 135.813 49.2952 139.218 51.1362 142.568C47.8002 140.437 44.1182 137.307 38.4152 138.415C38.8442 146.374 47.4822 143.648 54.2512 144.645C54.1552 137.058 45.2402 129.542 38.6782 136.338Z" fill="white"/><path fill-rule="evenodd" clip-rule="evenodd" d="M9.8569 150.098C11.3379 146.291 13.6359 143.316 16.5989 141.003C11.8229 141.336 9.1929 145.184 9.8569 150.098Z" fill="white"/><path fill-rule="evenodd" clip-rule="evenodd" d="M11.1586 149.835C13.8576 148.465 18.0386 145.253 17.6506 142.568C14.7026 144.201 12.8336 146.928 11.1586 149.835Z" fill="white"/><path fill-rule="evenodd" clip-rule="evenodd" d="M55.2895 167.235C47.9945 166.751 40.1035 169.727 31.6735 169.048C28.6425 168.799 25.1945 167.443 22.0665 167.235C17.5405 166.93 13.9135 168.134 10.1205 168.786C9.73251 169.963 8.7915 170.572 8.8185 172.164C10.3005 173.368 12.6815 173.672 15.0485 173.977C15.6435 172.841 15.0075 170.474 16.8615 170.598C16.5025 171.831 16.4465 173.603 17.1245 174.489C20.9325 174.669 23.5065 176.067 26.9805 176.566C26.8705 174.516 26.3715 172.413 28.0185 171.636C27.8665 173.949 28.2815 175.707 29.0575 177.091C32.9465 178.254 40.2275 177.174 44.8935 177.604C46.4165 177.742 49.3515 177.894 49.0465 179.679C47.5515 180.206 46.3185 179.528 44.8935 179.417C38.9965 178.988 31.8395 180.608 26.9805 179.928C23.7145 179.472 20.4885 178.061 17.3745 177.327C12.7365 176.247 9.26251 175.126 4.12651 174.723C-10.2565 173.631 -15.1285 161.048 -27.0335 157.849C-27.2965 157.849 -27.3385 158.057 -27.5455 158.113C-27.6015 158.321 -27.5605 158.625 -27.8095 158.638C-26.5215 162.778 -22.6455 165.076 -19.7665 167.719C-16.7065 170.53 -14.5745 174.032 -11.1975 176.551C-9.6475 175.998 -8.40049 173.866 -6.78149 174.212C-6.86449 175.998 -9.48149 176.468 -9.12049 177.853C-1.4935 179.154 4.9845 182.919 11.3935 185.382C14.6605 186.643 17.5675 188.885 21.2645 189.273C30.1085 190.228 38.0825 188.609 47.2325 189.009C49.3645 189.107 52.0635 188.581 54.2375 189.009C57.8925 189.73 59.4835 193.481 62.8065 194.976C67.9695 190.713 72.6065 185.909 77.8665 181.743C71.2095 175.07 66.5295 167.983 55.2895 167.235Z" fill="white"/><path fill-rule="evenodd" clip-rule="evenodd" d="M-11.1695 159.705C-9.1765 160.702 -7.1835 163.11 -4.9405 164.633C-2.8925 166.031 0.140495 168.648 2.3265 166.71C-2.6565 164.758 -6.1585 159.968 -11.1695 158.916C-11.2805 159.29 -11.4875 159.359 -11.1695 159.705Z" fill="white"/><path fill-rule="evenodd" clip-rule="evenodd" d="M82.2973 181.77C78.4063 185.216 74.1983 188.926 70.1013 192.416C66.1133 195.792 61.7543 198.728 59.1933 202.811C60.9373 204.113 61.9203 201.343 63.0823 200.471C69.8383 194.671 76.4003 188.692 83.8473 183.597C83.6813 182.628 82.8923 182.295 82.2973 181.77Z" fill="white"/><path fill-rule="evenodd" clip-rule="evenodd" d="M97.0952 198.119C93.3572 194.187 89.0662 187.695 85.4102 185.66C77.7562 192.028 69.9492 198.23 62.3082 204.611C66.9592 210.176 72.2742 215.062 77.3682 220.183C82.8782 215.588 89.3842 211.56 95.2952 206.937C96.2922 206.148 101.012 202.701 100.998 202.009C100.984 201.69 97.7312 198.797 97.0952 198.119Z" fill="white"/><path fill-rule="evenodd" clip-rule="evenodd" d="M410.281 29.526C408.783 22.7182 408.793 15.9876 408.872 8.3157C408.876 6.95054 409.929 1.72042 407.669 1.32703C406.507 2.06275 404.607 4.55703 403.077 6.09473C395.732 13.4299 388.881 18.1879 380.796 22.8328C377.458 24.757 373.89 26.0724 371.134 28.0132C365.68 31.8547 358.463 39.0904 355.471 47.7811C351.438 59.4795 356.136 71.9992 364.226 79.0361C374.299 87.8082 389.335 87.7889 397.425 83.5802C405.375 79.4392 413.143 69.0107 414.753 56.6442C415.976 47.2193 412.369 39.009 410.281 29.526Z" fill="#110808"/><path fill-rule="evenodd" clip-rule="evenodd" d="M386.945 91.443C384.926 90.9296 380.993 92.1863 379.634 93.9188C376.344 98.1082 379.111 100.937 378.689 105.035C380.034 106.82 383.527 109.53 386.546 109.315C388.516 109.172 391.354 106.345 392.053 104.994C394.434 100.4 392.177 92.7736 386.945 91.443Z" fill="#110808"/><path fill-rule="evenodd" clip-rule="evenodd" d="M353.123 78.4037C351.499 78.6777 348.1 80.5535 346.782 82.1798C342.239 87.7717 347.014 96.9421 353.999 93.6213C354.462 93.2709 354.148 91.8532 354.419 91.0557C353.073 90.3359 352.153 90.6372 350.868 90.0415C350.733 89.3421 350.618 87.7935 351.079 87.39C355.437 89.7607 362.506 88.8364 361.971 83.4394C361.61 79.846 356.101 77.9075 353.123 78.4037Z" fill="#110808"/><path fill-rule="evenodd" clip-rule="evenodd" d="M366.718 95.6415C367.602 92.4962 371.448 92.6787 374.251 93.3461C374.746 91.9476 375.13 90.6044 374.958 89.4809C372.495 87.6319 370.021 89.0277 367.493 88.327C362.635 88.5606 359.22 97.1616 361.995 100.999C365.182 104.687 371.325 105.434 374.264 102.615C374.279 101.47 373.941 100.478 374.064 99.2773C371.211 100.138 365.613 99.5896 366.718 95.6415Z" fill="#110808"/><path fill-rule="evenodd" clip-rule="evenodd" d="M408.713 53.5871C409.725 63.8744 402.807 74.7557 394.813 78.5794C391.927 79.9568 386.268 80.6698 382.729 80.1811C375.343 79.1636 369.154 75.3053 365.185 69.4812C363.359 66.8107 361.78 62.4361 361.364 58.7993C360.538 51.6933 364.869 41.7908 370.66 36.9662C375.095 33.2727 383.29 31.1227 391.174 33.598C397.084 35.4517 401.968 38.4586 404.557 42.0579C406.847 45.2725 408.368 50.1469 408.713 53.5871ZM406.374 6.60529C406.415 6.48208 406.443 6.35333 406.261 6.32703C400.961 13.6532 393.791 19.1215 386.581 23.0601C379.505 26.928 371.935 30.4444 366.249 36.9537C358.214 46.1446 356.106 58.8104 359.675 67.1443C362.818 74.501 372.108 82.6605 381.877 83.2946C384.648 83.4828 387.704 82.8183 390.723 82.1774C398.213 80.5742 404.517 76.0196 408.781 67.0876C415.877 52.2304 409.304 41.0723 407.403 29.3438C406.171 21.7726 405.884 14.5752 406.374 6.60529Z" fill="white"/><path fill-rule="evenodd" clip-rule="evenodd" d="M380 40.7045C382.471 42.6369 384.344 44.7995 387.857 46.327L392 36.9881C391.87 36.9355 391.742 36.8829 391.612 36.8303C386.56 35.308 383.03 37.4232 380 40.7045Z" fill="white"/><path fill-rule="evenodd" clip-rule="evenodd" d="M393.905 37.327C392.45 40.7554 391.256 44.7692 390 47.5855C393.282 48.8125 396.494 49.8514 399 49.0385C397.817 44.9082 399.441 39.5916 393.905 37.327Z" fill="white"/><path fill-rule="evenodd" clip-rule="evenodd" d="M401.156 49.3222C402.779 49.4175 403.779 48.074 405 47.2406C403.648 45.5871 402.176 43.1404 400 42.327C400.685 44.5375 401.205 46.8191 401.156 49.3222Z" fill="white"/><path fill-rule="evenodd" clip-rule="evenodd" d="M378.741 38.327C379.65 37.1721 381.629 36.4565 382 35.327C380.742 35.816 379.349 36.0172 378.027 36.3393C377.918 37.1339 378.133 37.8075 378.741 38.327Z" fill="white"/><path fill-rule="evenodd" clip-rule="evenodd" d="M400.746 51.9549C400.356 55.0259 399.179 58.3951 398 61.7656C400.445 62.4513 402.974 63.3336 405.56 64.327C407.694 58.5279 407.248 53.695 405.576 49.327C404.223 50.807 402.31 50.9845 400.746 51.9549Z" fill="white"/><path fill-rule="evenodd" clip-rule="evenodd" d="M375.603 37.327C371.886 39.5958 368.38 42.3988 366 48.1496C367.672 48.5151 369.605 49.5539 371.433 50.327C373.115 46.6216 374.85 43.0328 377 40.5377C376.13 39.6436 376.207 38.3518 375.603 37.327Z" fill="white"/><path fill-rule="evenodd" clip-rule="evenodd" d="M378.154 42.327C376.123 44.3823 374.441 47.2567 373 50.7071C376.791 52.1742 379.884 53.9102 383.802 55.327C384.801 52.9294 386.063 51.1798 387 48.6545C383.297 46.8465 380.395 44.711 378.154 42.327Z" fill="white"/><path fill-rule="evenodd" clip-rule="evenodd" d="M388.927 49.327C387.953 51.5618 386.974 53.8091 386 56.0452C388.948 57.8851 393.029 58.9976 396.331 60.327C397.363 57.2022 399.487 53.6283 398.899 51.1307C396.006 51.5924 392.306 50.0835 388.927 49.327Z" fill="white"/><path fill-rule="evenodd" clip-rule="evenodd" d="M392 71.4242C393.104 72.9943 394.056 74.6184 394.793 76.327C398.501 73.6561 402.4 71.438 405 66.0298C402.432 64.9387 400.067 64.3336 397.543 63.327C395.852 66.4175 393.927 68.9208 392 71.4242Z" fill="white"/><path fill-rule="evenodd" clip-rule="evenodd" d="M365.297 50.327C363.382 55.3985 363.717 59.6259 365.457 63.327C366.771 62.9171 368.217 62.8089 369.788 62.9861C369.921 59.5447 370.616 55.8842 371 52.3399C369.277 52.0775 367.197 50.998 365.297 50.327Z" fill="white"/><path fill-rule="evenodd" clip-rule="evenodd" d="M372.315 53.327C371.187 56.2914 370.728 60.4327 371.161 63.3105C374.008 63.1941 377.023 63.4894 380.258 64.327C381.169 62.1761 382.089 60.0182 383 57.8673C379.264 56.4249 374.922 54.2115 372.315 53.327Z" fill="white"/><path fill-rule="evenodd" clip-rule="evenodd" d="M382 64.1013C385.069 65.6914 387.942 67.3637 390.011 69.327C391.78 67.2721 393.706 65.5864 395 62.417C391.609 61.0541 388.219 59.6899 384.829 58.327C383.895 60.2877 383.11 62.5551 382 64.1013Z" fill="white"/><path fill-rule="evenodd" clip-rule="evenodd" d="M373.467 69.9624C373.995 71.6813 374.123 74.1398 375.927 75.327L380 65.6012C377.057 64.4368 374.583 64.4396 372.057 64.327C371.727 66.3879 372.912 68.1524 373.467 69.9624Z" fill="white"/><path fill-rule="evenodd" clip-rule="evenodd" d="M378 75.9805C382.988 77.5328 385.711 73.519 389 70.8856C387.126 69.1933 385.006 67.598 382.105 66.327C380.585 68.966 378.864 73.0727 378 75.9805Z" fill="white"/><path fill-rule="evenodd" clip-rule="evenodd" d="M389.759 73.327C387.709 75.3747 385.317 76.562 383 77.9331C386.364 78.6657 389.31 78.3191 392 77.3661C391.447 75.943 391.216 74.3894 389.759 73.327Z" fill="white"/><path fill-rule="evenodd" clip-rule="evenodd" d="M369.238 65.327C368.209 65.5437 367.094 65.5566 366 65.6033C366.714 68.0889 368.521 70.9831 371 72.327C369.857 70.1904 370.019 67.5856 369.238 65.327Z" fill="white"/><path fill-rule="evenodd" clip-rule="evenodd" d="M358 84.3567C356.699 82.7472 354.041 83.2121 353 84.4671C354.538 84.9737 355.931 85.1516 357.313 85.327C357.421 84.7443 357.886 84.9467 358 84.3567Z" fill="white"/><path fill-rule="evenodd" clip-rule="evenodd" d="M386.067 96.3291C382.691 96.196 383.937 102.654 386.339 103.261C389.615 104.109 390.245 96.4798 386.067 96.3291Z" fill="white"/><path fill-rule="evenodd" clip-rule="evenodd" d="M62.8832 17.4941C61.8742 17.0831 60.0222 16.9651 58.7322 17.1921C56.2832 17.6031 54.2962 18.9871 53.6362 20.4381C52.9602 21.9131 52.5052 25.1131 53.2512 26.9911C54.5982 30.4111 60.8592 31.8521 64.3622 29.0551C68.0772 26.0451 66.1832 18.8301 62.8832 17.4941Z" fill="#110808"/><path fill-rule="evenodd" clip-rule="evenodd" d="M108.745 34.37C107.928 30.546 105.628 27.31 103.526 24.905C102.346 23.546 101.087 21.949 99.5595 20.949C97.2975 19.485 93.1485 18.202 89.6835 17.738C88.8325 17.619 87.4315 17.586 86.7875 17.659C83.4365 18.102 81.7415 19.48 79.3035 20.83C77.8095 21.633 76.1275 22.442 75.1895 23.3C74.3915 24.03 73.8215 25.221 73.2245 26.104C71.6495 28.429 70.6755 30.921 70.4785 34.466C70.2315 39.112 70.1715 44.512 71.3615 48.284C72.1425 50.762 73.5135 53.519 74.7855 55.77C76.0935 58.097 77.7295 60.51 79.4295 61.981C83.4795 65.486 91.3195 66.675 97.7025 63.403C99.1765 62.654 100.799 61.21 102.163 59.795C105.708 56.109 107.857 52.209 108.692 45.943C109.2 42.237 109.521 37.98 108.745 34.37Z" fill="#110808"/><path fill-rule="evenodd" clip-rule="evenodd" d="M43.2719 39.5058C45.8729 36.1138 45.1089 29.5808 43.5379 26.6698C42.7079 25.1418 40.9069 23.2448 39.0529 22.2278C35.6139 20.3228 31.0619 20.9368 25.9399 20.8428C24.3479 20.8158 22.6759 20.4808 21.4099 20.6738C18.2379 21.1538 17.9699 23.2768 17.8759 26.7728C17.6029 36.1128 17.9649 44.9178 18.1399 54.3238C18.1869 56.9838 17.9879 63.1868 18.9719 64.8868C20.4109 67.3688 26.5549 66.6298 30.5729 66.5538C35.2249 66.4658 39.7839 66.4668 42.8839 65.1928C47.2759 63.3858 50.8109 59.5408 51.6099 54.4548C52.9419 46.1028 49.3429 40.8028 43.2719 39.5058Z" fill="#110808"/><path fill-rule="evenodd" clip-rule="evenodd" d="M65.6625 32.291C65.1115 32.104 64.6125 32.14 64.0165 32.193C61.9015 32.389 56.9365 32.688 55.7385 33.606C54.2785 34.737 54.9545 38.347 54.9945 40.916C55.1455 49.205 55.9345 58.756 55.4745 66.071C59.7005 66.339 64.0565 65.812 68.0415 65.459C67.7775 58.061 67.8535 49.011 67.7035 41.045C67.6655 37.697 68.2215 32.769 65.6625 32.291Z" fill="#110808"/><path fill-rule="evenodd" clip-rule="evenodd" d="M41.0511 273.279C23.1663 281.351 15.4507 293.969 13.2693 308.749C3.09634 303.94 -3.45932 303.68 -14.0088 304.799C-20.1577 305.45 -24.513 305.335 -31.7299 310.199C-44.1988 318.596 -54.4297 331.131 -57.9752 344.204C-61.3431 356.617 -60.9778 374.743 -53.2823 389.581C-23.6779 446.529 42.3031 411.422 80.103 428.942C81.2995 429.488 88.1246 434.806 90.7431 432.927C93.1765 431.183 91.1651 423.663 91.626 419.973C92.6928 410.811 96.5192 401.59 99.4979 392.328C102.314 383.6 103.989 373.297 105.271 364.099C107.976 344.567 108.816 324.96 97.7686 302.523C83.952 274.407 65.0785 262.454 41.0511 273.279Z" fill="#110808"/><path fill-rule="evenodd" clip-rule="evenodd" d="M23.007 305.327C34.8197 301.442 45.7905 300.737 56.9505 299.327C59.6412 292.523 65.089 286.463 72 280.827C56.8565 270.366 22.4358 284.768 23.007 305.327Z" fill="white"/><path fill-rule="evenodd" clip-rule="evenodd" d="M4.98258 311.49C1.85389 312.225 -2.32608 315.311 -5.30997 317.362C-31.5569 335.316 -44.1132 365.676 -41.7097 391.327C-34.3608 380.16 -28.9583 368.471 -16.5682 358.658C-9.50883 343.279 -1.37173 328.19 17 315.869C12.776 314.251 9.1701 310.502 4.98258 311.49Z" fill="white"/><path fill-rule="evenodd" clip-rule="evenodd" d="M29.2865 320.327C36.7606 317.678 41.9046 318.606 49.5606 318.177C54.7501 317.871 62.4251 319 65.2932 317.492C69.0063 315.547 69.7388 310.07 74 307.47C56.8731 306.771 38.381 303.581 20 312.321C23.3885 313.951 26.4183 316.729 29.2865 320.327Z" fill="white"/><path fill-rule="evenodd" clip-rule="evenodd" d="M62 300.353C71.8865 299.937 81.0244 302.33 90 305.327C85.7945 297.268 81.2743 290.379 76.2873 285.327C70.1992 287.855 63.7989 294.377 62 300.353Z" fill="white"/><path fill-rule="evenodd" clip-rule="evenodd" d="M-9 353.415C-3.98084 358.616 1.22371 369.569 4.84873 375.327C10.2691 359.491 20.3887 344.918 34 331.262C29.6804 327.017 25.5856 322.084 21.1328 318.327C8.06236 329.229 -3.56183 340.482 -9 353.415Z" fill="white"/><path fill-rule="evenodd" clip-rule="evenodd" d="M-20 387.161C-13.42 394.52 -6.6068 407.71 -4.41933 416.327C-2.72959 411.184 -3.36718 405.674 -2.15752 399.543C-1.03984 393.966 2.32704 388.007 1.97423 382.892C1.38452 374.446 -5.93141 366.009 -11.5362 357.327C-15.8859 366.847 -18.7614 376.783 -20 387.161Z" fill="white"/><path fill-rule="evenodd" clip-rule="evenodd" d="M78.8316 309.783C75.221 311.12 71.8171 315.422 70 318.908C79.9903 320.217 89.6893 322.527 99 326.327C97.5974 321.997 95.9558 317.601 94.3465 313.214C90.1423 312.471 83.9767 307.887 78.8316 309.783Z" fill="white"/><path fill-rule="evenodd" clip-rule="evenodd" d="M2 404.327C7.10515 396.015 15.9798 388.714 25.9727 381.718C30.3614 368.946 33.6911 355.87 44 344.675C41.594 341.884 39.7541 337.012 36.7947 336.327C15.511 356.141 3.80323 380.54 2 404.327Z" fill="white"/><path fill-rule="evenodd" clip-rule="evenodd" d="M47 339.327C50.8623 344.254 54.6761 349.501 58.458 354.795C61.9604 354.166 64.8093 355.833 68.3218 355.167C70.0016 351.471 74.3246 348.478 79 345.579C70.5185 341.152 57.7203 340.297 47 339.327Z" fill="white"/><path fill-rule="evenodd" clip-rule="evenodd" d="M33.0593 375.257C33.9463 381.724 38.8185 388.393 40.9104 395.018C43.0249 401.834 43.6028 407.863 45.4886 414.286C47.2877 414.103 48.9625 414.517 50.7779 414.209C49.2803 403.685 50.3746 396.639 53.0758 386.281C54.2958 381.586 59.7936 371.351 58.9029 367.57C57.2922 360.817 49.8118 354.909 46.015 348.327C42.021 354.054 32.1459 368.542 33.0593 375.257Z" fill="white"/><path fill-rule="evenodd" clip-rule="evenodd" d="M101 344.327C100.769 340.236 100.933 336.236 100.531 332.097C95.2948 330.374 90.3753 327.528 85 326.327C89.8515 334.264 95.2244 340.015 101 344.327Z" fill="white"/><path fill-rule="evenodd" clip-rule="evenodd" d="M76.8441 363.147C71.7551 361.424 66.5679 360.14 61 360.349C65.8754 366.745 69.1068 374.624 72.6135 381.753C79.6885 382.591 86.742 383.443 93 387.327C87.1078 380.485 80.9328 372.685 76.8441 363.147Z" fill="white"/><path fill-rule="evenodd" clip-rule="evenodd" d="M72 356.098C78.7128 359.867 89.1734 361.517 96.5536 367.327C98.5683 363.231 98.8015 358.649 99 354.057C93.9955 351.871 89.1213 349.201 84.0349 347.327C78.6954 349.899 75.7081 353.096 72 356.098Z" fill="white"/><path fill-rule="evenodd" clip-rule="evenodd" d="M30.2771 382.605C28.966 393.562 26.2131 404.126 29.6934 416.327C33.7521 414.787 36.993 416.214 41 414.791C39.9866 404.59 36.5206 393.774 31.4445 382.538C31.1468 382.242 30.7598 382.252 30.2771 382.605Z" fill="white"/><path fill-rule="evenodd" clip-rule="evenodd" d="M2 417.906C4.66145 418.589 7.69516 417.926 10.4296 418.327C14.0643 411.211 15.9565 403.608 24.0312 397.724C23.5884 395.231 26.4354 389.851 24.0077 389.327C12.8499 397.799 2.95723 406.622 2 417.906Z" fill="white"/><path fill-rule="evenodd" clip-rule="evenodd" d="M56.358 393.166C58.731 401.777 67.2777 407.74 67.3477 416.715C71.4759 418.54 75.9106 419.361 80 421.327C75.0749 405.895 73.2435 389.286 61.6558 373.327C61.2843 379.721 54.3714 385.959 56.358 393.166Z" fill="white"/><path fill-rule="evenodd" clip-rule="evenodd" d="M94.8457 381.327C96.0879 378.319 97.0229 375.228 96.9996 371.857C92.8613 369.016 88.5437 366.716 84 365.327C87.288 371.816 91.0736 376.509 94.8457 381.327Z" fill="white"/><path fill-rule="evenodd" clip-rule="evenodd" d="M15 417.327C18.0177 416.984 20.7201 417.795 24 416.618C22.3687 413.056 24.9181 406.705 22.084 405.327C19.492 409.238 15.471 412.843 15 417.327Z" fill="white"/><path fill-rule="evenodd" clip-rule="evenodd" d="M56.9408 415.414C58.9994 415.449 60.6683 417 63 415.981C60.9062 410.914 59.2555 403.707 55 400.327C55.6955 405.375 54.4137 409.865 56.9408 415.414Z" fill="white"/><path fill-rule="evenodd" clip-rule="evenodd" d="M33 323.651C36.5672 327.654 40.4535 330.482 43.6352 335.901C60.8144 335.152 78.466 340.057 93 344.327C87.5775 339.749 82.7216 333.154 78.2876 324.949C64.0915 321.217 48.6205 322.129 33 323.651Z" fill="white"/><path fill-rule="evenodd" clip-rule="evenodd" d="M76 387.327C80.8073 397.381 84.0286 409.034 86.8351 417.327C87.2893 414.086 88.5618 409.503 89.5933 404.502C90.3774 400.607 92.9529 393.938 91.6271 391.503C89.1797 386.986 81.0382 388.153 76 387.327Z" fill="white"/><path fill-rule="evenodd" clip-rule="evenodd" d="M135.481 219.193C120.658 229.769 114.375 247.711 123.198 265.63C128.537 276.485 138.466 279.472 145.794 286.436C148.204 288.731 152.175 292.976 154.5 296.557C156.139 299.074 157.933 304.657 159.949 305.407C162.88 306.496 170.32 302.806 174.54 301.245C180.273 299.122 184.677 297.362 189.079 295.25C189.747 290.139 188.005 285.698 187.6 281.212C186.424 268.124 192.717 255.249 191.408 242.885C190.278 232.18 183.337 221.871 175.573 217.727C167.145 213.183 148.214 210.099 135.481 219.193Z" fill="#110808"/><path fill-rule="evenodd" clip-rule="evenodd" d="M163.131 307.304C159.467 308.323 160.194 310.984 162.217 313.23C170.204 310.192 178.464 305.41 185.77 301.402C188.153 300.1 191.315 299.203 192.424 296.764C184.643 298.792 170.827 305.179 163.131 307.304Z" fill="#110808"/><path fill-rule="evenodd" clip-rule="evenodd" d="M168.638 312.091C166.549 313.058 162.31 313.87 162.994 316.983C165.134 317.671 167.572 316.43 170.123 315.277C176.621 312.306 184.582 307.846 190.187 304.112C191.907 302.977 195.112 301.371 192.416 299.262C185.49 303.776 176.844 308.296 168.638 312.091Z" fill="#110808"/><path fill-rule="evenodd" clip-rule="evenodd" d="M193.861 303.992C187.512 308.194 179.668 313.095 171.816 316.501C169.278 317.602 166.007 317.765 164.207 320.252C163.685 321.105 164.923 322.273 165.382 322.602C176.308 318.718 186.765 312.656 195.625 307.057C195.53 306.239 195.294 303.381 193.861 303.992Z" fill="#110808"/><path fill-rule="evenodd" clip-rule="evenodd" d="M166.203 324.777C166.138 325.945 166.866 327.784 167.788 328.231C174.325 325.842 184.884 320.485 191.61 316.303C194.555 314.472 200.071 311.851 196.063 309.069C187.215 314.824 177.139 320.004 166.203 324.777Z" fill="#110808"/><path fill-rule="evenodd" clip-rule="evenodd" d="M196.274 315.51C188.909 320.186 179.038 325.917 169.048 329.939C170.423 333.26 175.607 330.698 180.254 329.202C185.667 327.471 198.935 323.782 199.636 319.546C200.01 317.251 197.968 314.432 196.274 315.51Z" fill="#110808"/><path fill-rule="evenodd" clip-rule="evenodd" d="M174.272 332.349C179.71 340.124 198.042 333.064 197.936 324.215C190.628 326.697 182.082 330.875 174.272 332.349Z" fill="#110808"/><path fill-rule="evenodd" clip-rule="evenodd" d="M157.823 215.879C148.453 214.921 137.667 219.962 131.384 226.603C127.926 230.265 123.819 237.002 122.499 241.999C121.16 247.082 122.31 253.885 124.467 259.88C131.44 279.193 152.802 282.232 160.71 300.763C163.87 297.081 167.69 293.703 171.782 290.449C172.167 288.616 172.483 286.342 171.944 284.192C169.762 275.516 163.685 274.015 158.339 270.924C156.085 269.617 150.86 265.466 148.967 265.7C147.815 265.854 146.741 267.039 145.612 267.554C139.316 270.465 136.115 268.56 132.509 266.514C131.038 265.673 129.135 265.445 128.461 263.972C130.411 261.849 132.118 259.591 134.712 258.244C142.715 254.074 147.47 260.008 152.218 264.482C149.55 258.578 151.843 254.944 148.572 248.765C137.943 253.667 133.461 242.561 129.246 235.137C133.537 234.16 138.121 232.801 141.642 234.266C147.527 236.724 148.547 244.042 151.411 251.433C153.239 247.891 155.383 244.505 156.395 240.588C151.52 238.16 150.067 230.889 151.343 226.941C152.321 223.889 154.945 220.583 156.785 219.032C164.511 223.288 167.986 237.456 158.916 241.524C156.885 247.605 151.613 252.195 153.725 260.204C154.811 258.658 155.959 255.192 158.009 253.337C158.232 248.07 161.81 241.819 167.453 241.148C174.319 240.343 181.474 245.1 185.85 248.921C182.293 252.701 177.026 256.567 170.361 256.524C167.069 256.502 162.979 253.413 160.528 254.273C157.203 255.422 154.793 262.433 156.4 265.733C158.379 269.815 164.705 270.773 167.4 272.833C168.851 270.188 167.583 267.888 167.876 264.898C168.636 256.905 180.635 254.314 186.118 259.689C185.538 265.86 177.648 268.507 170.346 269.875C169.482 271.065 169.337 272.583 168.725 273.888C173.176 276.297 176.612 284.362 175.507 289.682C179.265 289.224 182.383 290.163 185.927 290.17C184.396 280.692 184.189 272.478 186.444 263.914C188.648 255.565 189.715 247.007 186.862 237.39C182.429 222.288 169.604 217.087 157.823 215.879Z" fill="white"/><path fill-rule="evenodd" clip-rule="evenodd" d="M157.115 239.098C160.053 235.467 159.014 230.008 157.179 224.183C160.896 227.525 161.042 234.571 160.117 237.988C164.974 234.756 161.293 225.204 157.193 221.7C152.15 225.079 150.861 234.686 157.115 239.098Z" fill="white"/><path fill-rule="evenodd" clip-rule="evenodd" d="M146.184 242.228C143.8 235.092 138.108 235.156 131.913 236.338C135.536 242.95 139.418 251.478 147.365 247.071C144.33 241.353 138.063 240.035 134.433 237.274C138.796 237.927 142.461 240.128 146.184 242.228Z" fill="white"/><path fill-rule="evenodd" clip-rule="evenodd" d="M160.37 251.239C167.123 246.516 174.817 247.515 180.263 248.832C174.904 250.188 168.805 248.277 163.974 251.756C168.729 253.859 177.054 253.948 182.847 249.115C177.819 242.492 161.671 239.488 160.37 251.239Z" fill="white"/><path fill-rule="evenodd" clip-rule="evenodd" d="M146.709 261.256C143.081 256.675 134.765 258.435 131.043 263.338C134.014 266.971 141.858 269.636 147.551 264.358C143.972 262.124 139.286 262.298 133.994 263.79C136.958 260.182 144.184 260.871 146.709 261.256Z" fill="white"/><path fill-rule="evenodd" clip-rule="evenodd" d="M169.92 266.941C171.993 264.37 177.334 259.705 181.691 261.037C177.879 262.61 174.333 264.293 173.047 267.039C178.049 267.071 182.93 263.992 183.871 260.23C179.905 256.563 167.93 260.175 169.92 266.941Z" fill="white"/><path fill-rule="evenodd" clip-rule="evenodd" d="M370.297 147.351C362.617 142.463 357.171 140.362 349.499 139.516C337.859 138.249 328.821 138.675 320.882 151.447C313.817 162.792 319.644 172.942 317.201 182.855C315.362 190.331 305.84 199.606 300.305 202.591C292.923 206.582 279.451 203.87 273.997 195.125C270.076 188.82 269.237 179.614 271.753 172.198C274.43 173.634 276 171.085 277.482 168.492C286.934 171.228 296.272 163.791 303.564 156.197C305.238 154.455 306.501 152.153 308.304 150.399C309.118 149.598 310.344 149.288 311.054 148.465C312.867 146.377 314.211 143.344 314.645 140.807C312.853 138.567 309.769 137.837 307.332 135.712C310.805 130.211 316.005 124.392 318.188 119.122C316.11 117.88 313.852 115.673 311.893 115.096C307.82 119.836 304.897 126.096 301.196 131.455C297.201 128.45 292.176 126.333 289.335 122.849C292.975 117.379 297.563 111.749 300.03 106.49C298.053 104.958 296.126 103.821 294.212 102.761C289.862 106.574 286.115 113.696 281.94 118.364C279.279 117.64 276.844 113.548 274.137 113.972C272.443 115.273 271.045 118.215 269.459 120.172C268.967 121.369 270.719 122.145 270.43 123.295C259.073 137.706 256.118 150.615 264.859 161.443C263.924 162.639 263.234 163.799 263.197 164.834C262.919 165.923 265.362 166.515 265.542 167.511C260.859 182.433 262.839 198.915 278.747 207.877C284.767 211.268 292.521 211.383 297.753 210.256C304.374 208.83 311.244 203.165 316.363 196.606C318.003 194.497 319.666 189.925 322.437 187.888C324.369 186.462 328.971 187.103 332.174 186.974C341.483 186.6 349.493 185.732 357.687 178.491C360.899 175.648 362.874 170.626 365.332 167.001C369.49 160.883 374.391 157.164 379.048 154.851C377.248 151.321 373.405 149.346 370.297 147.351Z" fill="#110808"/><path fill-rule="evenodd" clip-rule="evenodd" d="M358.374 149.907C362.283 149.843 366.209 149.857 370.24 150.477C366.984 148.055 363.906 146.629 360.861 145.328C359.868 146.877 359.707 148.287 358.374 149.907Z" fill="white"/><path fill-rule="evenodd" clip-rule="evenodd" d="M363.331 152.317C365.685 153.529 368.079 155.027 370.501 156.61C371.345 155.522 373.386 155.097 373.506 153.795C370.078 153.066 366.628 152.201 363.331 152.317Z" fill="white"/><path fill-rule="evenodd" clip-rule="evenodd" d="M353.569 142.711C352.658 145.908 351.365 149.163 350.345 152.37C351.357 151.091 354.409 151.694 355.97 150.336C357.715 148.815 358.864 146.109 358.575 144.094C356.905 143.667 355.273 143.333 353.569 142.711Z" fill="white"/><path fill-rule="evenodd" clip-rule="evenodd" d="M340.743 142.533C342.282 147.42 340.734 152.859 340.026 158.147C341.733 155.795 345.341 155.503 347.384 153.112C349.892 150.173 350.365 145.713 351.034 142.346C347.56 142.202 344.046 141.771 340.743 142.533Z" fill="white"/><path fill-rule="evenodd" clip-rule="evenodd" d="M359.034 152.471C355.086 153.449 349.961 154.052 346.994 156.691C352.71 156.738 358.606 157.749 365.132 162.329C366.531 161.304 367.693 158.948 369.115 158.109C365.578 155.183 362.329 153.929 359.034 152.471Z" fill="white"/><path fill-rule="evenodd" clip-rule="evenodd" d="M312.687 119.481C310.311 122.597 307.473 127.137 305.869 129.784C305.192 130.903 303.148 132.387 304.269 133.578C307.673 130.681 311.528 124.165 314.034 120.077C313.704 120.599 313.11 119.586 312.687 119.481Z" fill="white"/><path fill-rule="evenodd" clip-rule="evenodd" d="M295.614 108.288C294.768 107.955 295.203 107.403 294.358 107.07C291.506 110.797 286.806 116.315 285.394 120.429C285.705 120.645 286.027 120.87 286.339 121.087C289.578 117.614 292.501 112.413 295.614 108.288Z" fill="white"/><path fill-rule="evenodd" clip-rule="evenodd" d="M338.036 142.392C335.582 143.264 333.123 144.118 330.865 146.154C333.518 151.799 333.943 157.842 333.852 163.989C339.938 157.316 339.911 148.933 338.036 142.392Z" fill="white"/><path fill-rule="evenodd" clip-rule="evenodd" d="M338.906 162.259C345.112 163.418 352.687 166.369 358.879 171.281C360.648 168.494 362.531 166.282 364.376 163.906C356.297 159.543 344.502 155.604 338.906 162.259Z" fill="white"/><path fill-rule="evenodd" clip-rule="evenodd" d="M328.855 147.542C326.91 149.745 324.944 151.83 323.128 154.756C325.382 158.174 327.912 162.23 328.806 165.708C329.098 166.836 328.613 168.637 329.778 168.831C332.79 161.146 331.365 154.251 328.855 147.542Z" fill="white"/><path fill-rule="evenodd" clip-rule="evenodd" d="M332.602 170.816C338.514 171.514 344.714 173.934 351.326 178.609C353.513 177.361 355.559 175.382 357.509 172.754C350.424 167.751 343.705 164.798 337.368 163.976C335.779 165.52 333.392 168.749 332.602 170.816Z" fill="white"/><path fill-rule="evenodd" clip-rule="evenodd" d="M273.451 120.508C283.596 129.149 297.023 137.203 308.488 145.618C309.362 144.363 310.237 143.108 311.12 141.841C298.513 133.126 286.615 125.796 274.606 118.85C274.222 119.403 273.837 119.955 273.451 120.508Z" fill="white"/><path fill-rule="evenodd" clip-rule="evenodd" d="M326.977 172.85C328.382 169.484 324.245 160.444 322.123 157.204C320.341 161.162 320.563 164.772 320.218 168.484C323.012 170.463 323.246 172.903 325.501 174.968C325.888 174.144 326.593 173.746 326.977 172.85Z" fill="white"/><path fill-rule="evenodd" clip-rule="evenodd" d="M273.596 124.816C273.38 124.734 273.183 124.82 273.025 125.12C272.912 125.281 272.809 125.431 272.696 125.592C281.015 132.705 291.82 140.079 301.607 146.435C302.395 146.949 303.715 148.81 304.929 147.706C295.826 139.706 283.089 132.405 273.596 124.816Z" fill="white"/><path fill-rule="evenodd" clip-rule="evenodd" d="M328.326 176.955C335.768 179.334 343.648 184.156 349.871 179.717C343.05 174.998 336.709 173.026 330.72 173.028C329.746 174.352 328.776 175.695 328.326 176.955Z" fill="white"/><path fill-rule="evenodd" clip-rule="evenodd" d="M270.376 129.929C260.613 141.979 259.491 153.804 271.416 161.118C282.523 167.934 293.98 163.838 302.063 151.304C291.533 143.609 280.069 136.665 270.376 129.929Z" fill="white"/><path fill-rule="evenodd" clip-rule="evenodd" d="M327.179 178.601C326.779 180.255 324.64 182.221 324.2 183.881C327.479 184.455 331.656 183.173 334.739 182.825C335.758 182.712 337.465 183.356 337.533 182.325C334.1 181.164 330.606 179.671 327.179 178.601Z" fill="white"/><path fill-rule="evenodd" clip-rule="evenodd" d="M320.407 182.282C321.722 180.393 323.038 178.505 324.346 176.628C322.553 175.224 321.871 172.543 320.382 171.761C321.458 175.077 320.033 178.84 320.407 182.282Z" fill="white"/><path fill-rule="evenodd" clip-rule="evenodd" d="M319.447 186.164C319.157 186.458 318.783 186.283 318.486 186.537C307.403 204.116 291.04 214.149 275.022 199.672C267.832 193.174 267.519 183.702 268.498 175.865C268.759 173.772 270.388 170.426 268.152 169.313C264.675 180.027 264.362 193.169 274.577 201.809C291.654 216.237 310.388 205.87 320.158 186.643C319.92 186.493 319.689 186.332 319.447 186.164Z" fill="white"/><path fill-rule="evenodd" clip-rule="evenodd" d="M273.93 167.06C271.778 166.981 269.09 163.841 266.985 163.966C268.503 164.956 271.548 167.213 273.423 168.793C273.614 168.226 274.934 167.435 273.93 167.06Z" fill="white"/><path fill-rule="evenodd" clip-rule="evenodd" d="M594.25 64.3485C594.644 64.5075 595.038 64.6655 595.432 64.8245C596.298 65.3859 596 66.0432 595.876 67.0537C593.698 87.8478 604.76 113.376 602.75 138.055C600.022 171.283 571.207 190.814 542.709 175.933C521.955 165.091 516.697 137.73 533.709 113.655C550.119 90.4676 577.618 89.3194 594.25 64.3485Z" fill="#110808"/><mask id="mask0" mask-type="alpha" maskUnits="userSpaceOnUse" x="528" y="72" width="190" height="299"><path fill-rule="evenodd" clip-rule="evenodd" d="M717.818 97.2951L576.338 72.3484L528.235 345.151L669.715 370.098L717.818 97.2951Z" fill="white"/></mask><g mask="url(#mask0)"><path fill-rule="evenodd" clip-rule="evenodd" d="M598.512 205.35C605.132 202.861 613.081 202.423 620.36 198.47C625.3 195.764 635.836 187.231 638.004 181.754C639.843 177.097 638.296 168.47 639.205 161.817C640.846 149.921 644.197 139.312 649.822 128.665C649.489 123.523 649.409 115.202 653.252 108.283C655.059 105.024 659.249 103.215 662.187 99.6004C665.37 95.7299 665.741 91.9991 668.536 90.5836C677.344 86.0811 677.866 95.6717 685.206 99.9961C687.952 112.668 692.157 123.032 695.5 135.449C696.916 140.708 697.522 147.371 699.011 153.858C701.189 163.55 707.273 169.768 702.364 181.091C698.579 189.798 691.636 197.483 686.834 206.169C682.3 214.363 678.188 226.781 672.937 233.947C656.045 256.961 607.468 248.694 606.75 288.328C609.396 289.215 611.151 288.015 614.283 289.979C615.352 296.545 615.713 303.461 615.769 311.665C615.797 318.272 618.125 329.434 614.782 334.404C612.386 337.99 601.794 338.672 597.04 339.513C577.673 342.947 556.931 347.52 540.083 347.24C536.944 341.077 536.187 333.65 535.992 325.177C535.844 317.994 532.924 307.864 536.846 301.011C538.738 297.715 540.72 299.111 542.357 295.748C543.919 292.566 542.451 288.31 542.602 284.949C543.099 273.616 547.051 258.347 551.454 247.666C561.444 223.538 581.376 211.761 598.512 205.35Z" fill="#110808"/></g><path fill-rule="evenodd" clip-rule="evenodd" d="M516.944 32.1177C524.793 34.2141 532.205 27.3787 535.495 36.8584C536.7 40.2726 533.876 44.2223 533.595 48.3476C533.464 50.341 534.648 52.5836 534.633 54.2014C534.629 56.4944 534.607 58.7471 534.039 60.7769C531.847 68.511 525.853 71.4687 522.393 77.8815C520.684 81.0784 520.208 85.5119 518.486 89.2686C515.433 95.9855 511.386 102.974 507.318 108.611C502.823 114.784 495.656 120.307 494.142 124.429C492.271 129.432 493.6 143.702 495.289 148.725C497.683 155.866 503.303 161.479 506.53 168.215C515.108 186.071 519.848 209.693 510.89 231.973C504.39 248.143 494.054 260.936 484.175 273.029C487.658 283.259 475.917 291.284 468.409 298.716C462.41 304.673 455.208 310.286 449.828 311.017C438.001 299.307 425.626 281.233 414.665 266.232C411.52 261.931 404.575 254.336 405.635 249.677C406.971 243.895 416.067 237.7 420.474 233.151C426.101 227.328 431.24 222.545 436.57 218.51C440.294 218.735 441.049 222.745 443.395 221.923C451.129 214.369 453.37 205.631 452.15 196.808C449.873 180.674 435.624 162.162 433.211 145.586C431.687 135.227 439.088 119.806 442.302 107.683C444.837 98.2151 445.109 87.3425 448.702 78.2286C452.949 67.4033 461.556 66.2026 469.166 61.2462C486.145 50.2075 499.98 41.7155 516.944 32.1177Z" fill="#110808"/><path fill-rule="evenodd" clip-rule="evenodd" d="M675.539 99.2305C674.26 104.367 669.443 112.445 669.212 118.505C668.732 131.535 676.8 144.977 672.419 157.335C672.36 136.977 660.079 119.481 669.226 96.6543C671.28 96.856 676.084 95.4212 675.539 99.2305Z" fill="white"/><path fill-rule="evenodd" clip-rule="evenodd" d="M524.872 37.0864C527.932 36.7022 528.904 39.3452 530.8 40.8134C521.538 63.3935 500.69 68.3196 486 81.8164C493.118 69.9106 507.387 65.8494 515.992 55.9154C519.872 51.393 522.035 42.2396 524.872 37.0864Z" fill="white"/><path fill-rule="evenodd" clip-rule="evenodd" d="M636.45 214.35C637.852 209.014 634.186 203.403 628.171 202.853C629.964 207.074 633.192 210.704 636.45 214.35ZM642.799 208.71C642.2 204.759 638.328 202.21 634.156 199.787C633.308 204.534 638.598 206.629 640.939 210.01C641.427 209.323 642.319 209.471 642.799 208.71ZM627.709 200.582C636.512 193.564 641.62 181.277 651.291 177.364C650.139 179.973 649.921 182.182 650.694 183.943C653.969 185.438 656.083 187.456 657.942 189.583C659.412 188.902 660.605 187.511 662.269 187.228C652.649 201.195 641.454 213.292 631.508 223.241C627.506 227.247 622.071 230.782 620.956 236.021C627.075 232.797 631.7 227.064 637.736 222.995C645.293 217.947 647.05 216.111 653.454 207.527C657.953 201.495 664.326 196.5 668.727 189.83C679.762 173.04 680.171 154.549 678.677 141.333C677.698 132.883 673.971 124.704 674.17 117.01C674.264 113.091 674.929 105.728 680.74 103.969C683.655 106.452 682.105 110.842 684.35 113.586C683.484 116.099 680.737 114.25 680.136 117.33C686.973 118.988 686.393 123.772 687.47 127.844C686.246 129.931 681.433 129.547 681.828 131.72C685.204 133.928 686.557 131.434 689.197 131.968C690.145 137.156 692.12 144.17 693.968 152.298C695.513 159.068 699.582 169.117 696.846 173.916C694.239 178.482 687.954 176.411 683.706 179.539C686.34 182.366 690.649 180.147 693.672 180.162C681.775 196.641 679.357 212.237 669.695 226.4C663.818 234.984 654.202 238.144 646.363 242.228C627.253 252.196 599.875 261.872 598.935 292.657C581.383 294.349 564.695 298.014 547.163 299.748C548.652 287.169 546.867 278.889 549.945 267.444C555.323 247.281 570.069 229.407 582.716 221.323C596.746 212.347 615.019 210.699 627.709 200.582Z" fill="white"/><path fill-rule="evenodd" clip-rule="evenodd" d="M486.216 145.642C481.432 141.861 474.876 143.351 472.194 148.151C477.077 147.82 481.942 147.447 486.216 145.642ZM471.738 139.176C471.378 144.201 481.627 142.256 483.978 139.33C479.302 137.914 475.25 137.943 471.738 139.176ZM473.401 63.829C480.393 59.2426 486.682 55.6056 490.936 52.5274C493.153 54.1523 492.78 56.9221 497.077 57.6939C497.17 55.0921 494.978 53.4053 495.083 50.7751C498.54 47.8324 502.369 45.8133 507.928 47.7579C509.008 45.5195 506.116 44.9573 507.228 42.7298C511.208 42.5292 512.798 36.8348 517.711 38.8026C517.503 39.6693 518.285 40.1932 518.191 41.0357C508.184 62.6698 485.714 65.7347 474.13 85.823C463.594 104.116 466.225 118.148 464.583 131.525C463.215 142.551 463.368 145.075 465.282 153.508C466.908 160.807 465.843 168.365 469.026 174.706C470.591 155.635 467.39 131.771 472.832 111.088C472.862 112.858 473.191 114.502 474.344 115.772C476.902 114.967 480.088 115.505 483.525 116.741C484.611 114.75 486.34 114.245 487.042 111.36C491.77 120.993 486.136 133.545 487.84 144.955C488.936 152.255 493.975 160.321 497.139 167.674C504.275 184.25 508.695 196.748 506.636 216.958C504.318 239.914 492.26 257.315 477.866 271.282C466.323 257.902 456.733 243.718 445.148 230.356C465.446 208.516 452.75 180.603 446.22 161.561C444.483 156.47 441.262 151.099 440.117 146.208C438.228 138.242 441.394 128.112 444.603 118.141C448.08 107.329 450.809 96.1805 454.873 84.2672C456.073 86.2956 459.025 91.8047 462.171 89.8978C449.376 77.4221 462.13 71.2033 473.401 63.829Z" fill="white"/><path fill-rule="evenodd" clip-rule="evenodd" d="M667.675 168.684C664.654 165.808 659.3 164.988 656.491 166.218C659.254 149.351 647.849 123.278 660.008 108.437C661.316 129.063 669.119 146.876 667.675 168.684Z" fill="white"/><path fill-rule="evenodd" clip-rule="evenodd" d="M491.138 99.9847C490.768 96.9283 485.477 94.3109 481.789 94.1789C496.241 77.5988 514.127 69.0293 530.138 56.0901C524.128 78.2535 503.495 85.154 491.138 99.9847Z" fill="white"/><path fill-rule="evenodd" clip-rule="evenodd" d="M561.961 102.79C572.849 96.5378 582.561 90.2349 589.168 85.7918C589.318 102.362 601.721 124.647 596.546 145.364C593.735 156.498 586.506 165.039 580.333 168.843C573.769 172.914 560.011 175.783 550.59 171.88C542.653 168.576 535.125 159.248 532.948 153.175C530.24 145.614 531.416 132.937 536.772 123.358C541.093 115.485 553.228 107.791 561.961 102.79Z" fill="white"/><path fill-rule="evenodd" clip-rule="evenodd" d="M651.344 169.163C648.478 171.874 646.006 175.519 642.368 176.407C643.099 164.813 644.022 150.555 650.263 138.197C651.409 148.156 650.802 158.919 651.344 169.163Z" fill="white"/><path fill-rule="evenodd" clip-rule="evenodd" d="M494.569 116.837C492.506 113.66 493.235 109.313 493.018 105.362C500.856 98.5851 507.558 89.2467 516.065 84.0715C510.088 97.7747 502.577 107.879 494.569 116.837Z" fill="white"/><path fill-rule="evenodd" clip-rule="evenodd" d="M667.478 175.563C664.783 179.317 662.223 183.433 658.709 185.38C658.353 183.483 655.713 182.504 654.349 180.998C655.544 171.999 663.713 168.592 667.478 175.563Z" fill="white"/><path fill-rule="evenodd" clip-rule="evenodd" d="M483.164 112.643C480.931 112.536 478.613 112.218 476.605 112.654C476.823 108.414 476.794 104.285 477.807 99.6715C485.126 97.1445 488.472 105.248 483.164 112.643Z" fill="white"/><path fill-rule="evenodd" clip-rule="evenodd" d="M547.913 306.473C568.252 303.67 588.762 301.842 606.611 297.03C607.186 297.259 607.79 297.501 608.365 297.732C606.935 301.625 597.173 303.015 591.446 304.418C580.189 307.163 569.211 308.694 557.242 310.248C554.236 310.647 541.395 313.49 541.379 309.262C541.357 306.707 545.947 306.732 547.913 306.473Z" fill="white"/><path fill-rule="evenodd" clip-rule="evenodd" d="M467.487 269.552C470.755 273.518 475.001 277.627 476.015 282.411C475.68 283.154 474.919 282.92 474.724 283.929C461.896 273.243 450.655 257.062 441.823 243.102C438.897 238.465 433.603 233.693 434.818 228.152C435.399 228.384 436.013 228.629 436.594 228.861C445.065 242.746 457.095 256.897 467.487 269.552Z" fill="white"/><path fill-rule="evenodd" clip-rule="evenodd" d="M606.982 307.25C606.233 315.738 608.6 322.887 607.492 331.48C587.177 335.983 567.08 341.001 545.315 342.07C541.614 335.344 544.74 325.68 545.02 317.215C560.725 316.723 575.251 313.442 589.338 310.375C595.388 309.117 601.333 306.357 606.982 307.25Z" fill="white"/><path fill-rule="evenodd" clip-rule="evenodd" d="M431.158 237.661C441.904 255.313 454.277 272.255 467.791 288.743C463.07 295.003 457.321 298.999 451.722 303.228C445.238 296.544 439.337 289.114 431.762 278.391C428.756 274.112 413.18 257.569 414.27 252.515C414.865 249.816 419.661 246.698 422.368 244.285C425.483 241.474 427.756 238.293 431.158 237.661Z" fill="white"/></g></svg>
